M48
; DRILL file {KiCad 9.0.3} date 2025-07-30T17:21:23+0200
; FORMAT={-:-/ absolute / metric / decimal}
; #@! TF.CreationDate,2025-07-30T17:21:23+02:00
; #@! TF.GenerationSoftware,Kicad,Pcbnew,9.0.3
; #@! TF.FileFunction,NonPlated,1,2,NPTH
FMAT,2
METRIC
; #@! TA.AperFunction,NonPlated,NPTH,ComponentDrill
T1C0.500
%
G90
G05
T1
X122.86Y-27.0
X122.86Y-42.0
X122.86Y-44.541
X122.86Y-59.54
X122.86Y-62.081
X122.86Y-77.081
X122.86Y-79.62
X122.86Y-94.62
X122.86Y-97.16
X122.86Y-112.16
X123.86Y-27.0
X123.86Y-42.0
X123.86Y-44.541
X123.86Y-59.54
X123.86Y-62.081
X123.86Y-77.081
X123.86Y-79.62
X123.86Y-94.62
X123.86Y-97.16
X123.86Y-112.16
X124.86Y-27.0
X124.86Y-42.0
X124.86Y-44.541
X124.86Y-59.54
X124.86Y-62.081
X124.86Y-77.081
X124.86Y-79.62
X124.86Y-94.62
X124.86Y-97.16
X124.86Y-112.16
X125.86Y-27.0
X125.86Y-42.0
X125.86Y-44.541
X125.86Y-59.54
X125.86Y-62.081
X125.86Y-77.081
X125.86Y-79.62
X125.86Y-94.62
X125.86Y-97.16
X125.86Y-112.16
X134.295Y-27.0
X134.295Y-42.0
X134.295Y-44.541
X134.295Y-59.54
X134.295Y-62.081
X134.295Y-77.081
X134.295Y-79.62
X134.295Y-94.62
X134.295Y-97.16
X134.295Y-112.16
X135.295Y-27.0
X135.295Y-42.0
X135.295Y-44.541
X135.295Y-59.54
X135.295Y-62.081
X135.295Y-77.081
X135.295Y-79.62
X135.295Y-94.62
X135.295Y-97.16
X135.295Y-112.16
X136.295Y-27.0
X136.295Y-42.0
X136.295Y-44.541
X136.295Y-59.54
X136.295Y-62.081
X136.295Y-77.081
X136.295Y-79.62
X136.295Y-94.62
X136.295Y-97.16
X136.295Y-112.16
X137.295Y-27.0
X137.295Y-42.0
X137.295Y-44.541
X137.295Y-59.54
X137.295Y-62.081
X137.295Y-77.081
X137.295Y-79.62
X137.295Y-94.62
X137.295Y-97.16
X137.295Y-112.16
X147.23Y-33.0
X147.23Y-34.0
X147.23Y-35.0
X147.23Y-36.0
X147.23Y-50.54
X147.23Y-51.54
X147.23Y-52.54
X147.23Y-53.54
X147.23Y-68.081
X147.23Y-69.081
X147.23Y-70.081
X147.23Y-71.081
X147.23Y-85.62
X147.23Y-86.62
X147.23Y-87.62
X147.23Y-88.62
X147.23Y-103.16
X147.23Y-104.16
X147.23Y-105.16
X147.23Y-106.16
X149.77Y-33.0
X149.77Y-34.0
X149.77Y-35.0
X149.77Y-36.0
X149.77Y-50.54
X149.77Y-51.54
X149.77Y-52.54
X149.77Y-53.54
X149.77Y-68.081
X149.77Y-69.081
X149.77Y-70.081
X149.77Y-71.081
X149.77Y-85.62
X149.77Y-86.62
X149.77Y-87.62
X149.77Y-88.62
X149.77Y-103.16
X149.77Y-104.16
X149.77Y-105.16
X149.77Y-106.16
X159.705Y-27.0
X159.705Y-42.0
X159.705Y-44.541
X159.705Y-59.54
X159.705Y-62.081
X159.705Y-77.081
X159.705Y-79.62
X159.705Y-94.62
X159.705Y-97.16
X159.705Y-112.16
X160.705Y-27.0
X160.705Y-42.0
X160.705Y-44.541
X160.705Y-59.54
X160.705Y-62.081
X160.705Y-77.081
X160.705Y-79.62
X160.705Y-94.62
X160.705Y-97.16
X160.705Y-112.16
X161.705Y-27.0
X161.705Y-42.0
X161.705Y-44.541
X161.705Y-59.54
X161.705Y-62.081
X161.705Y-77.081
X161.705Y-79.62
X161.705Y-94.62
X161.705Y-97.16
X161.705Y-112.16
X162.705Y-27.0
X162.705Y-42.0
X162.705Y-44.541
X162.705Y-59.54
X162.705Y-62.081
X162.705Y-77.081
X162.705Y-79.62
X162.705Y-94.62
X162.705Y-97.16
X162.705Y-112.16
X171.14Y-27.0
X171.14Y-42.0
X171.14Y-44.541
X171.14Y-59.54
X171.14Y-62.081
X171.14Y-77.081
X171.14Y-79.62
X171.14Y-94.62
X171.14Y-97.16
X171.14Y-112.16
X172.14Y-27.0
X172.14Y-42.0
X172.14Y-44.541
X172.14Y-59.54
X172.14Y-62.081
X172.14Y-77.081
X172.14Y-79.62
X172.14Y-94.62
X172.14Y-97.16
X172.14Y-112.16
X173.14Y-27.0
X173.14Y-42.0
X173.14Y-44.541
X173.14Y-59.54
X173.14Y-62.081
X173.14Y-77.081
X173.14Y-79.62
X173.14Y-94.62
X173.14Y-97.16
X173.14Y-112.16
X174.14Y-27.0
X174.14Y-42.0
X174.14Y-44.541
X174.14Y-59.54
X174.14Y-62.081
X174.14Y-77.081
X174.14Y-79.62
X174.14Y-94.62
X174.14Y-97.16
X174.14Y-112.16
M30
