%TF.GenerationSoftware,KiCad,Pcbnew,9.0.3*%
%TF.CreationDate,2025-07-30T17:20:14+02:00*%
%TF.ProjectId,Untitled6,556e7469-746c-4656-9436-2e6b69636164,rev?*%
%TF.SameCoordinates,Original*%
%TF.FileFunction,Paste,Top*%
%TF.FilePolarity,Positive*%
%FSLAX46Y46*%
G04 Gerber Fmt 4.6, Leading zero omitted, Abs format (unit mm)*
G04 Created by KiCad (PCBNEW 9.0.3) date 2025-07-30 17:20:14*
%MOMM*%
%LPD*%
G01*
G04 APERTURE LIST*
G04 Aperture macros list*
%AMRoundRect*
0 Rectangle with rounded corners*
0 $1 Rounding radius*
0 $2 $3 $4 $5 $6 $7 $8 $9 X,Y pos of 4 corners*
0 Add a 4 corners polygon primitive as box body*
4,1,4,$2,$3,$4,$5,$6,$7,$8,$9,$2,$3,0*
0 Add four circle primitives for the rounded corners*
1,1,$1+$1,$2,$3*
1,1,$1+$1,$4,$5*
1,1,$1+$1,$6,$7*
1,1,$1+$1,$8,$9*
0 Add four rect primitives between the rounded corners*
20,1,$1+$1,$2,$3,$4,$5,0*
20,1,$1+$1,$4,$5,$6,$7,0*
20,1,$1+$1,$6,$7,$8,$9,0*
20,1,$1+$1,$8,$9,$2,$3,0*%
G04 Aperture macros list end*
%ADD10RoundRect,0.225000X0.225000X0.250000X-0.225000X0.250000X-0.225000X-0.250000X0.225000X-0.250000X0*%
%ADD11RoundRect,0.200000X0.275000X-0.200000X0.275000X0.200000X-0.275000X0.200000X-0.275000X-0.200000X0*%
%ADD12RoundRect,0.200000X-0.275000X0.200000X-0.275000X-0.200000X0.275000X-0.200000X0.275000X0.200000X0*%
%ADD13RoundRect,0.200000X-0.200000X-0.275000X0.200000X-0.275000X0.200000X0.275000X-0.200000X0.275000X0*%
%ADD14RoundRect,0.200000X0.200000X0.275000X-0.200000X0.275000X-0.200000X-0.275000X0.200000X-0.275000X0*%
%ADD15RoundRect,0.190500X-1.079500X-0.444500X1.079500X-0.444500X1.079500X0.444500X-1.079500X0.444500X0*%
%ADD16RoundRect,0.225000X-0.225000X-0.250000X0.225000X-0.250000X0.225000X0.250000X-0.225000X0.250000X0*%
%ADD17RoundRect,0.225000X0.250000X-0.225000X0.250000X0.225000X-0.250000X0.225000X-0.250000X-0.225000X0*%
%ADD18RoundRect,0.250000X-0.800000X-0.650000X0.800000X-0.650000X0.800000X0.650000X-0.800000X0.650000X0*%
%ADD19RoundRect,0.225000X-0.250000X0.225000X-0.250000X-0.225000X0.250000X-0.225000X0.250000X0.225000X0*%
%ADD20RoundRect,0.250000X0.800000X0.650000X-0.800000X0.650000X-0.800000X-0.650000X0.800000X-0.650000X0*%
%ADD21RoundRect,0.075000X-0.662500X-0.075000X0.662500X-0.075000X0.662500X0.075000X-0.662500X0.075000X0*%
%ADD22RoundRect,0.075000X-0.075000X-0.662500X0.075000X-0.662500X0.075000X0.662500X-0.075000X0.662500X0*%
%ADD23RoundRect,0.190500X1.079500X0.444500X-1.079500X0.444500X-1.079500X-0.444500X1.079500X-0.444500X0*%
%ADD24RoundRect,0.075000X0.662500X0.075000X-0.662500X0.075000X-0.662500X-0.075000X0.662500X-0.075000X0*%
%ADD25RoundRect,0.075000X0.075000X0.662500X-0.075000X0.662500X-0.075000X-0.662500X0.075000X-0.662500X0*%
G04 APERTURE END LIST*
D10*
%TO.C,C15*%
X119876522Y-54902022D03*
X118326522Y-54902022D03*
%TD*%
D11*
%TO.C,R14*%
X156439239Y-90514739D03*
X156439239Y-88864739D03*
%TD*%
D12*
%TO.C,R5*%
X175699239Y-106444739D03*
X175699239Y-108094739D03*
%TD*%
D13*
%TO.C,R9*%
X155374239Y-39529739D03*
X157024239Y-39529739D03*
%TD*%
%TO.C,R2*%
X118270761Y-34391261D03*
X119920761Y-34391261D03*
%TD*%
D10*
%TO.C,C2*%
X136545761Y-56731261D03*
X134995761Y-56731261D03*
%TD*%
%TO.C,C14*%
X119845761Y-67971261D03*
X118295761Y-67971261D03*
%TD*%
D14*
%TO.C,R9*%
X141625761Y-82091261D03*
X139975761Y-82091261D03*
%TD*%
D15*
%TO.C,J2*%
X152569239Y-64509739D03*
X152569239Y-67049739D03*
X152569239Y-69589739D03*
X152569239Y-72129739D03*
X152569239Y-74669739D03*
%TD*%
D10*
%TO.C,C2*%
X136545761Y-74271261D03*
X134995761Y-74271261D03*
%TD*%
D12*
%TO.C,R5*%
X175699239Y-88904739D03*
X175699239Y-90554739D03*
%TD*%
D16*
%TO.C,C9*%
X156954239Y-100369739D03*
X158504239Y-100369739D03*
%TD*%
%TO.C,C5*%
X132026522Y-73412022D03*
X133576522Y-73412022D03*
%TD*%
D13*
%TO.C,R26*%
X169654239Y-28619739D03*
X171304239Y-28619739D03*
%TD*%
D16*
%TO.C,C2*%
X160454239Y-29809739D03*
X162004239Y-29809739D03*
%TD*%
D17*
%TO.C,C6*%
X173879239Y-100444739D03*
X173879239Y-98894739D03*
%TD*%
D14*
%TO.C,R3*%
X178729239Y-103269739D03*
X177079239Y-103269739D03*
%TD*%
D13*
%TO.C,R3*%
X118270761Y-88511261D03*
X119920761Y-88511261D03*
%TD*%
D16*
%TO.C,C4*%
X132026522Y-74932022D03*
X133576522Y-74932022D03*
%TD*%
D12*
%TO.C,R5*%
X175699239Y-53824739D03*
X175699239Y-55474739D03*
%TD*%
D13*
%TO.C,R3*%
X118270761Y-53431261D03*
X119920761Y-53431261D03*
%TD*%
D14*
%TO.C,R26*%
X127345761Y-40381261D03*
X125695761Y-40381261D03*
%TD*%
D18*
%TO.C,Y1*%
X158849239Y-105459739D03*
X161749239Y-105459739D03*
X161749239Y-103159739D03*
X158849239Y-103159739D03*
%TD*%
D13*
%TO.C,R9*%
X155374239Y-74609739D03*
X157024239Y-74609739D03*
%TD*%
D14*
%TO.C,R4*%
X178713478Y-65248978D03*
X177063478Y-65248978D03*
%TD*%
D11*
%TO.C,R14*%
X156439239Y-108054739D03*
X156439239Y-106404739D03*
%TD*%
D13*
%TO.C,R26*%
X169654239Y-46159739D03*
X171304239Y-46159739D03*
%TD*%
D19*
%TO.C,C6*%
X123120761Y-108876261D03*
X123120761Y-110426261D03*
%TD*%
D10*
%TO.C,C14*%
X119845761Y-103051261D03*
X118295761Y-103051261D03*
%TD*%
D17*
%TO.C,C6*%
X173879239Y-82904739D03*
X173879239Y-81354739D03*
%TD*%
D13*
%TO.C,R3*%
X118270761Y-106051261D03*
X119920761Y-106051261D03*
%TD*%
D12*
%TO.C,R5*%
X175699239Y-36284739D03*
X175699239Y-37934739D03*
%TD*%
D13*
%TO.C,R1*%
X166673478Y-45768978D03*
X168323478Y-45768978D03*
%TD*%
D20*
%TO.C,Y1*%
X138150761Y-68781261D03*
X135250761Y-68781261D03*
X135250761Y-71081261D03*
X138150761Y-71081261D03*
%TD*%
D10*
%TO.C,C4*%
X164973478Y-99308978D03*
X163423478Y-99308978D03*
%TD*%
D13*
%TO.C,R4*%
X118286522Y-56372022D03*
X119936522Y-56372022D03*
%TD*%
D10*
%TO.C,C5*%
X164973478Y-100828978D03*
X163423478Y-100828978D03*
%TD*%
D14*
%TO.C,R2*%
X178729239Y-87229739D03*
X177079239Y-87229739D03*
%TD*%
D11*
%TO.C,R5*%
X121300761Y-67796261D03*
X121300761Y-66146261D03*
%TD*%
D12*
%TO.C,R14*%
X140560761Y-101266261D03*
X140560761Y-102916261D03*
%TD*%
D11*
%TO.C,R14*%
X156439239Y-37894739D03*
X156439239Y-36244739D03*
%TD*%
%TO.C,R5*%
X121300761Y-85336261D03*
X121300761Y-83686261D03*
%TD*%
D10*
%TO.C,C15*%
X119876522Y-89982022D03*
X118326522Y-89982022D03*
%TD*%
D16*
%TO.C,C15*%
X177123478Y-31638978D03*
X178673478Y-31638978D03*
%TD*%
%TO.C,C1*%
X160664239Y-37469739D03*
X162214239Y-37469739D03*
%TD*%
D13*
%TO.C,R1*%
X166673478Y-80848978D03*
X168323478Y-80848978D03*
%TD*%
%TO.C,R3*%
X118270761Y-70971261D03*
X119920761Y-70971261D03*
%TD*%
D11*
%TO.C,R14*%
X156439239Y-72974739D03*
X156439239Y-71324739D03*
%TD*%
D10*
%TO.C,C2*%
X136545761Y-91811261D03*
X134995761Y-91811261D03*
%TD*%
D20*
%TO.C,Y1*%
X138150761Y-51241261D03*
X135250761Y-51241261D03*
X135250761Y-53541261D03*
X138150761Y-53541261D03*
%TD*%
D10*
%TO.C,C15*%
X119876522Y-37362022D03*
X118326522Y-37362022D03*
%TD*%
D16*
%TO.C,C15*%
X177123478Y-84258978D03*
X178673478Y-84258978D03*
%TD*%
%TO.C,C4*%
X132026522Y-39852022D03*
X133576522Y-39852022D03*
%TD*%
%TO.C,C4*%
X132026522Y-57392022D03*
X133576522Y-57392022D03*
%TD*%
D20*
%TO.C,Y1*%
X138150761Y-33701261D03*
X135250761Y-33701261D03*
X135250761Y-36001261D03*
X138150761Y-36001261D03*
%TD*%
D10*
%TO.C,C14*%
X119845761Y-50431261D03*
X118295761Y-50431261D03*
%TD*%
%TO.C,C5*%
X164973478Y-48208978D03*
X163423478Y-48208978D03*
%TD*%
D21*
%TO.C,U1*%
X165604239Y-102269739D03*
X165604239Y-102769739D03*
X165604239Y-103269739D03*
X165604239Y-103769739D03*
X165604239Y-104269739D03*
X165604239Y-104769739D03*
X165604239Y-105269739D03*
X165604239Y-105769739D03*
X165604239Y-106269739D03*
X165604239Y-106769739D03*
X165604239Y-107269739D03*
X165604239Y-107769739D03*
D22*
X167016739Y-109182239D03*
X167516739Y-109182239D03*
X168016739Y-109182239D03*
X168516739Y-109182239D03*
X169016739Y-109182239D03*
X169516739Y-109182239D03*
X170016739Y-109182239D03*
X170516739Y-109182239D03*
X171016739Y-109182239D03*
X171516739Y-109182239D03*
X172016739Y-109182239D03*
X172516739Y-109182239D03*
D21*
X173929239Y-107769739D03*
X173929239Y-107269739D03*
X173929239Y-106769739D03*
X173929239Y-106269739D03*
X173929239Y-105769739D03*
X173929239Y-105269739D03*
X173929239Y-104769739D03*
X173929239Y-104269739D03*
X173929239Y-103769739D03*
X173929239Y-103269739D03*
X173929239Y-102769739D03*
X173929239Y-102269739D03*
D22*
X172516739Y-100857239D03*
X172016739Y-100857239D03*
X171516739Y-100857239D03*
X171016739Y-100857239D03*
X170516739Y-100857239D03*
X170016739Y-100857239D03*
X169516739Y-100857239D03*
X169016739Y-100857239D03*
X168516739Y-100857239D03*
X168016739Y-100857239D03*
X167516739Y-100857239D03*
X167016739Y-100857239D03*
%TD*%
D23*
%TO.C,J2*%
X144430761Y-39571261D03*
X144430761Y-37031261D03*
X144430761Y-34491261D03*
X144430761Y-31951261D03*
X144430761Y-29411261D03*
%TD*%
D16*
%TO.C,C1*%
X160664239Y-107629739D03*
X162214239Y-107629739D03*
%TD*%
D14*
%TO.C,R9*%
X141625761Y-99631261D03*
X139975761Y-99631261D03*
%TD*%
%TO.C,R1*%
X130326522Y-93392022D03*
X128676522Y-93392022D03*
%TD*%
D13*
%TO.C,R9*%
X155374239Y-57069739D03*
X157024239Y-57069739D03*
%TD*%
D15*
%TO.C,J2*%
X152569239Y-99589739D03*
X152569239Y-102129739D03*
X152569239Y-104669739D03*
X152569239Y-107209739D03*
X152569239Y-109749739D03*
%TD*%
D14*
%TO.C,R2*%
X178729239Y-69689739D03*
X177079239Y-69689739D03*
%TD*%
D24*
%TO.C,U1*%
X131395761Y-89511261D03*
X131395761Y-89011261D03*
X131395761Y-88511261D03*
X131395761Y-88011261D03*
X131395761Y-87511261D03*
X131395761Y-87011261D03*
X131395761Y-86511261D03*
X131395761Y-86011261D03*
X131395761Y-85511261D03*
X131395761Y-85011261D03*
X131395761Y-84511261D03*
X131395761Y-84011261D03*
D25*
X129983261Y-82598761D03*
X129483261Y-82598761D03*
X128983261Y-82598761D03*
X128483261Y-82598761D03*
X127983261Y-82598761D03*
X127483261Y-82598761D03*
X126983261Y-82598761D03*
X126483261Y-82598761D03*
X125983261Y-82598761D03*
X125483261Y-82598761D03*
X124983261Y-82598761D03*
X124483261Y-82598761D03*
D24*
X123070761Y-84011261D03*
X123070761Y-84511261D03*
X123070761Y-85011261D03*
X123070761Y-85511261D03*
X123070761Y-86011261D03*
X123070761Y-86511261D03*
X123070761Y-87011261D03*
X123070761Y-87511261D03*
X123070761Y-88011261D03*
X123070761Y-88511261D03*
X123070761Y-89011261D03*
X123070761Y-89511261D03*
D25*
X124483261Y-90923761D03*
X124983261Y-90923761D03*
X125483261Y-90923761D03*
X125983261Y-90923761D03*
X126483261Y-90923761D03*
X126983261Y-90923761D03*
X127483261Y-90923761D03*
X127983261Y-90923761D03*
X128483261Y-90923761D03*
X128983261Y-90923761D03*
X129483261Y-90923761D03*
X129983261Y-90923761D03*
%TD*%
D16*
%TO.C,C5*%
X132026522Y-108492022D03*
X133576522Y-108492022D03*
%TD*%
D14*
%TO.C,R2*%
X178729239Y-34609739D03*
X177079239Y-34609739D03*
%TD*%
D13*
%TO.C,R3*%
X118270761Y-35891261D03*
X119920761Y-35891261D03*
%TD*%
D14*
%TO.C,R3*%
X178729239Y-33109739D03*
X177079239Y-33109739D03*
%TD*%
D18*
%TO.C,Y1*%
X158849239Y-87919739D03*
X161749239Y-87919739D03*
X161749239Y-85619739D03*
X158849239Y-85619739D03*
%TD*%
D13*
%TO.C,R26*%
X169654239Y-63699739D03*
X171304239Y-63699739D03*
%TD*%
%TO.C,R4*%
X118286522Y-38832022D03*
X119936522Y-38832022D03*
%TD*%
D10*
%TO.C,C9*%
X140045761Y-91411261D03*
X138495761Y-91411261D03*
%TD*%
D16*
%TO.C,C2*%
X160454239Y-64889739D03*
X162004239Y-64889739D03*
%TD*%
D19*
%TO.C,C6*%
X123120761Y-91336261D03*
X123120761Y-92886261D03*
%TD*%
D10*
%TO.C,C15*%
X119876522Y-72442022D03*
X118326522Y-72442022D03*
%TD*%
%TO.C,C14*%
X119845761Y-32891261D03*
X118295761Y-32891261D03*
%TD*%
%TO.C,C4*%
X164973478Y-46688978D03*
X163423478Y-46688978D03*
%TD*%
D16*
%TO.C,C15*%
X177123478Y-101798978D03*
X178673478Y-101798978D03*
%TD*%
D14*
%TO.C,R9*%
X141625761Y-64551261D03*
X139975761Y-64551261D03*
%TD*%
D10*
%TO.C,C4*%
X164973478Y-81768978D03*
X163423478Y-81768978D03*
%TD*%
%TO.C,C15*%
X119876522Y-107522022D03*
X118326522Y-107522022D03*
%TD*%
D14*
%TO.C,R2*%
X178729239Y-52149739D03*
X177079239Y-52149739D03*
%TD*%
D21*
%TO.C,U1*%
X165604239Y-49649739D03*
X165604239Y-50149739D03*
X165604239Y-50649739D03*
X165604239Y-51149739D03*
X165604239Y-51649739D03*
X165604239Y-52149739D03*
X165604239Y-52649739D03*
X165604239Y-53149739D03*
X165604239Y-53649739D03*
X165604239Y-54149739D03*
X165604239Y-54649739D03*
X165604239Y-55149739D03*
D22*
X167016739Y-56562239D03*
X167516739Y-56562239D03*
X168016739Y-56562239D03*
X168516739Y-56562239D03*
X169016739Y-56562239D03*
X169516739Y-56562239D03*
X170016739Y-56562239D03*
X170516739Y-56562239D03*
X171016739Y-56562239D03*
X171516739Y-56562239D03*
X172016739Y-56562239D03*
X172516739Y-56562239D03*
D21*
X173929239Y-55149739D03*
X173929239Y-54649739D03*
X173929239Y-54149739D03*
X173929239Y-53649739D03*
X173929239Y-53149739D03*
X173929239Y-52649739D03*
X173929239Y-52149739D03*
X173929239Y-51649739D03*
X173929239Y-51149739D03*
X173929239Y-50649739D03*
X173929239Y-50149739D03*
X173929239Y-49649739D03*
D22*
X172516739Y-48237239D03*
X172016739Y-48237239D03*
X171516739Y-48237239D03*
X171016739Y-48237239D03*
X170516739Y-48237239D03*
X170016739Y-48237239D03*
X169516739Y-48237239D03*
X169016739Y-48237239D03*
X168516739Y-48237239D03*
X168016739Y-48237239D03*
X167516739Y-48237239D03*
X167016739Y-48237239D03*
%TD*%
D14*
%TO.C,R1*%
X130326522Y-40772022D03*
X128676522Y-40772022D03*
%TD*%
D16*
%TO.C,C2*%
X160454239Y-82429739D03*
X162004239Y-82429739D03*
%TD*%
D14*
%TO.C,R3*%
X178729239Y-68189739D03*
X177079239Y-68189739D03*
%TD*%
D19*
%TO.C,C6*%
X123120761Y-56256261D03*
X123120761Y-57806261D03*
%TD*%
D10*
%TO.C,C9*%
X140045761Y-56331261D03*
X138495761Y-56331261D03*
%TD*%
D16*
%TO.C,C5*%
X132026522Y-55872022D03*
X133576522Y-55872022D03*
%TD*%
D13*
%TO.C,R9*%
X155374239Y-109689739D03*
X157024239Y-109689739D03*
%TD*%
D17*
%TO.C,C6*%
X173879239Y-47824739D03*
X173879239Y-46274739D03*
%TD*%
D19*
%TO.C,C6*%
X123120761Y-38716261D03*
X123120761Y-40266261D03*
%TD*%
D10*
%TO.C,C2*%
X136545761Y-109351261D03*
X134995761Y-109351261D03*
%TD*%
D23*
%TO.C,J2*%
X144430761Y-109731261D03*
X144430761Y-107191261D03*
X144430761Y-104651261D03*
X144430761Y-102111261D03*
X144430761Y-99571261D03*
%TD*%
D14*
%TO.C,R26*%
X127345761Y-75461261D03*
X125695761Y-75461261D03*
%TD*%
D23*
%TO.C,J2*%
X144430761Y-57111261D03*
X144430761Y-54571261D03*
X144430761Y-52031261D03*
X144430761Y-49491261D03*
X144430761Y-46951261D03*
%TD*%
D16*
%TO.C,C5*%
X132026522Y-90952022D03*
X133576522Y-90952022D03*
%TD*%
D13*
%TO.C,R4*%
X118286522Y-108992022D03*
X119936522Y-108992022D03*
%TD*%
D11*
%TO.C,R5*%
X121300761Y-50256261D03*
X121300761Y-48606261D03*
%TD*%
D14*
%TO.C,R4*%
X178713478Y-30168978D03*
X177063478Y-30168978D03*
%TD*%
D10*
%TO.C,C9*%
X140045761Y-108951261D03*
X138495761Y-108951261D03*
%TD*%
D12*
%TO.C,R14*%
X140560761Y-66186261D03*
X140560761Y-67836261D03*
%TD*%
D14*
%TO.C,R3*%
X178729239Y-85729739D03*
X177079239Y-85729739D03*
%TD*%
D10*
%TO.C,C5*%
X164973478Y-83288978D03*
X163423478Y-83288978D03*
%TD*%
D14*
%TO.C,R3*%
X178729239Y-50649739D03*
X177079239Y-50649739D03*
%TD*%
D13*
%TO.C,R2*%
X118270761Y-69471261D03*
X119920761Y-69471261D03*
%TD*%
D16*
%TO.C,C9*%
X156954239Y-65289739D03*
X158504239Y-65289739D03*
%TD*%
D13*
%TO.C,R4*%
X118286522Y-91452022D03*
X119936522Y-91452022D03*
%TD*%
D16*
%TO.C,C4*%
X132026522Y-92472022D03*
X133576522Y-92472022D03*
%TD*%
D21*
%TO.C,U1*%
X165604239Y-32109739D03*
X165604239Y-32609739D03*
X165604239Y-33109739D03*
X165604239Y-33609739D03*
X165604239Y-34109739D03*
X165604239Y-34609739D03*
X165604239Y-35109739D03*
X165604239Y-35609739D03*
X165604239Y-36109739D03*
X165604239Y-36609739D03*
X165604239Y-37109739D03*
X165604239Y-37609739D03*
D22*
X167016739Y-39022239D03*
X167516739Y-39022239D03*
X168016739Y-39022239D03*
X168516739Y-39022239D03*
X169016739Y-39022239D03*
X169516739Y-39022239D03*
X170016739Y-39022239D03*
X170516739Y-39022239D03*
X171016739Y-39022239D03*
X171516739Y-39022239D03*
X172016739Y-39022239D03*
X172516739Y-39022239D03*
D21*
X173929239Y-37609739D03*
X173929239Y-37109739D03*
X173929239Y-36609739D03*
X173929239Y-36109739D03*
X173929239Y-35609739D03*
X173929239Y-35109739D03*
X173929239Y-34609739D03*
X173929239Y-34109739D03*
X173929239Y-33609739D03*
X173929239Y-33109739D03*
X173929239Y-32609739D03*
X173929239Y-32109739D03*
D22*
X172516739Y-30697239D03*
X172016739Y-30697239D03*
X171516739Y-30697239D03*
X171016739Y-30697239D03*
X170516739Y-30697239D03*
X170016739Y-30697239D03*
X169516739Y-30697239D03*
X169016739Y-30697239D03*
X168516739Y-30697239D03*
X168016739Y-30697239D03*
X167516739Y-30697239D03*
X167016739Y-30697239D03*
%TD*%
D16*
%TO.C,C9*%
X156954239Y-30209739D03*
X158504239Y-30209739D03*
%TD*%
D21*
%TO.C,U1*%
X165604239Y-84729739D03*
X165604239Y-85229739D03*
X165604239Y-85729739D03*
X165604239Y-86229739D03*
X165604239Y-86729739D03*
X165604239Y-87229739D03*
X165604239Y-87729739D03*
X165604239Y-88229739D03*
X165604239Y-88729739D03*
X165604239Y-89229739D03*
X165604239Y-89729739D03*
X165604239Y-90229739D03*
D22*
X167016739Y-91642239D03*
X167516739Y-91642239D03*
X168016739Y-91642239D03*
X168516739Y-91642239D03*
X169016739Y-91642239D03*
X169516739Y-91642239D03*
X170016739Y-91642239D03*
X170516739Y-91642239D03*
X171016739Y-91642239D03*
X171516739Y-91642239D03*
X172016739Y-91642239D03*
X172516739Y-91642239D03*
D21*
X173929239Y-90229739D03*
X173929239Y-89729739D03*
X173929239Y-89229739D03*
X173929239Y-88729739D03*
X173929239Y-88229739D03*
X173929239Y-87729739D03*
X173929239Y-87229739D03*
X173929239Y-86729739D03*
X173929239Y-86229739D03*
X173929239Y-85729739D03*
X173929239Y-85229739D03*
X173929239Y-84729739D03*
D22*
X172516739Y-83317239D03*
X172016739Y-83317239D03*
X171516739Y-83317239D03*
X171016739Y-83317239D03*
X170516739Y-83317239D03*
X170016739Y-83317239D03*
X169516739Y-83317239D03*
X169016739Y-83317239D03*
X168516739Y-83317239D03*
X168016739Y-83317239D03*
X167516739Y-83317239D03*
X167016739Y-83317239D03*
%TD*%
D16*
%TO.C,C9*%
X156954239Y-47749739D03*
X158504239Y-47749739D03*
%TD*%
D17*
%TO.C,C6*%
X173879239Y-30284739D03*
X173879239Y-28734739D03*
%TD*%
D10*
%TO.C,C5*%
X164973478Y-30668978D03*
X163423478Y-30668978D03*
%TD*%
%TO.C,C1*%
X136335761Y-31531261D03*
X134785761Y-31531261D03*
%TD*%
D16*
%TO.C,C4*%
X132026522Y-110012022D03*
X133576522Y-110012022D03*
%TD*%
D10*
%TO.C,C9*%
X140045761Y-38791261D03*
X138495761Y-38791261D03*
%TD*%
D12*
%TO.C,R14*%
X140560761Y-31106261D03*
X140560761Y-32756261D03*
%TD*%
D13*
%TO.C,R9*%
X155374239Y-92149739D03*
X157024239Y-92149739D03*
%TD*%
D16*
%TO.C,C2*%
X160454239Y-47349739D03*
X162004239Y-47349739D03*
%TD*%
D13*
%TO.C,R1*%
X166673478Y-98388978D03*
X168323478Y-98388978D03*
%TD*%
D19*
%TO.C,C6*%
X123120761Y-73796261D03*
X123120761Y-75346261D03*
%TD*%
D20*
%TO.C,Y1*%
X138150761Y-86321261D03*
X135250761Y-86321261D03*
X135250761Y-88621261D03*
X138150761Y-88621261D03*
%TD*%
D14*
%TO.C,R1*%
X130326522Y-58312022D03*
X128676522Y-58312022D03*
%TD*%
D24*
%TO.C,U1*%
X131395761Y-36891261D03*
X131395761Y-36391261D03*
X131395761Y-35891261D03*
X131395761Y-35391261D03*
X131395761Y-34891261D03*
X131395761Y-34391261D03*
X131395761Y-33891261D03*
X131395761Y-33391261D03*
X131395761Y-32891261D03*
X131395761Y-32391261D03*
X131395761Y-31891261D03*
X131395761Y-31391261D03*
D25*
X129983261Y-29978761D03*
X129483261Y-29978761D03*
X128983261Y-29978761D03*
X128483261Y-29978761D03*
X127983261Y-29978761D03*
X127483261Y-29978761D03*
X126983261Y-29978761D03*
X126483261Y-29978761D03*
X125983261Y-29978761D03*
X125483261Y-29978761D03*
X124983261Y-29978761D03*
X124483261Y-29978761D03*
D24*
X123070761Y-31391261D03*
X123070761Y-31891261D03*
X123070761Y-32391261D03*
X123070761Y-32891261D03*
X123070761Y-33391261D03*
X123070761Y-33891261D03*
X123070761Y-34391261D03*
X123070761Y-34891261D03*
X123070761Y-35391261D03*
X123070761Y-35891261D03*
X123070761Y-36391261D03*
X123070761Y-36891261D03*
D25*
X124483261Y-38303761D03*
X124983261Y-38303761D03*
X125483261Y-38303761D03*
X125983261Y-38303761D03*
X126483261Y-38303761D03*
X126983261Y-38303761D03*
X127483261Y-38303761D03*
X127983261Y-38303761D03*
X128483261Y-38303761D03*
X128983261Y-38303761D03*
X129483261Y-38303761D03*
X129983261Y-38303761D03*
%TD*%
D16*
%TO.C,C14*%
X177154239Y-71189739D03*
X178704239Y-71189739D03*
%TD*%
D18*
%TO.C,Y1*%
X158849239Y-35299739D03*
X161749239Y-35299739D03*
X161749239Y-32999739D03*
X158849239Y-32999739D03*
%TD*%
D14*
%TO.C,R26*%
X127345761Y-93001261D03*
X125695761Y-93001261D03*
%TD*%
D16*
%TO.C,C14*%
X177154239Y-53649739D03*
X178704239Y-53649739D03*
%TD*%
D13*
%TO.C,R2*%
X118270761Y-87011261D03*
X119920761Y-87011261D03*
%TD*%
D12*
%TO.C,R14*%
X140560761Y-48646261D03*
X140560761Y-50296261D03*
%TD*%
D10*
%TO.C,C2*%
X136545761Y-39191261D03*
X134995761Y-39191261D03*
%TD*%
D16*
%TO.C,C5*%
X132026522Y-38332022D03*
X133576522Y-38332022D03*
%TD*%
%TO.C,C1*%
X160664239Y-72549739D03*
X162214239Y-72549739D03*
%TD*%
D10*
%TO.C,C4*%
X164973478Y-64228978D03*
X163423478Y-64228978D03*
%TD*%
%TO.C,C5*%
X164973478Y-65748978D03*
X163423478Y-65748978D03*
%TD*%
D16*
%TO.C,C15*%
X177123478Y-66718978D03*
X178673478Y-66718978D03*
%TD*%
D14*
%TO.C,R4*%
X178713478Y-47708978D03*
X177063478Y-47708978D03*
%TD*%
D17*
%TO.C,C6*%
X173879239Y-65364739D03*
X173879239Y-63814739D03*
%TD*%
D18*
%TO.C,Y1*%
X158849239Y-52839739D03*
X161749239Y-52839739D03*
X161749239Y-50539739D03*
X158849239Y-50539739D03*
%TD*%
D13*
%TO.C,R4*%
X118286522Y-73912022D03*
X119936522Y-73912022D03*
%TD*%
D14*
%TO.C,R9*%
X141625761Y-29471261D03*
X139975761Y-29471261D03*
%TD*%
D23*
%TO.C,J2*%
X144430761Y-74651261D03*
X144430761Y-72111261D03*
X144430761Y-69571261D03*
X144430761Y-67031261D03*
X144430761Y-64491261D03*
%TD*%
D16*
%TO.C,C2*%
X160454239Y-99969739D03*
X162004239Y-99969739D03*
%TD*%
D23*
%TO.C,J2*%
X144430761Y-92191261D03*
X144430761Y-89651261D03*
X144430761Y-87111261D03*
X144430761Y-84571261D03*
X144430761Y-82031261D03*
%TD*%
D14*
%TO.C,R4*%
X178713478Y-82788978D03*
X177063478Y-82788978D03*
%TD*%
D11*
%TO.C,R5*%
X121300761Y-32716261D03*
X121300761Y-31066261D03*
%TD*%
D18*
%TO.C,Y1*%
X158849239Y-70379739D03*
X161749239Y-70379739D03*
X161749239Y-68079739D03*
X158849239Y-68079739D03*
%TD*%
D10*
%TO.C,C4*%
X164973478Y-29148978D03*
X163423478Y-29148978D03*
%TD*%
D21*
%TO.C,U1*%
X165604239Y-67189739D03*
X165604239Y-67689739D03*
X165604239Y-68189739D03*
X165604239Y-68689739D03*
X165604239Y-69189739D03*
X165604239Y-69689739D03*
X165604239Y-70189739D03*
X165604239Y-70689739D03*
X165604239Y-71189739D03*
X165604239Y-71689739D03*
X165604239Y-72189739D03*
X165604239Y-72689739D03*
D22*
X167016739Y-74102239D03*
X167516739Y-74102239D03*
X168016739Y-74102239D03*
X168516739Y-74102239D03*
X169016739Y-74102239D03*
X169516739Y-74102239D03*
X170016739Y-74102239D03*
X170516739Y-74102239D03*
X171016739Y-74102239D03*
X171516739Y-74102239D03*
X172016739Y-74102239D03*
X172516739Y-74102239D03*
D21*
X173929239Y-72689739D03*
X173929239Y-72189739D03*
X173929239Y-71689739D03*
X173929239Y-71189739D03*
X173929239Y-70689739D03*
X173929239Y-70189739D03*
X173929239Y-69689739D03*
X173929239Y-69189739D03*
X173929239Y-68689739D03*
X173929239Y-68189739D03*
X173929239Y-67689739D03*
X173929239Y-67189739D03*
D22*
X172516739Y-65777239D03*
X172016739Y-65777239D03*
X171516739Y-65777239D03*
X171016739Y-65777239D03*
X170516739Y-65777239D03*
X170016739Y-65777239D03*
X169516739Y-65777239D03*
X169016739Y-65777239D03*
X168516739Y-65777239D03*
X168016739Y-65777239D03*
X167516739Y-65777239D03*
X167016739Y-65777239D03*
%TD*%
D13*
%TO.C,R1*%
X166673478Y-63308978D03*
X168323478Y-63308978D03*
%TD*%
D15*
%TO.C,J2*%
X152569239Y-29429739D03*
X152569239Y-31969739D03*
X152569239Y-34509739D03*
X152569239Y-37049739D03*
X152569239Y-39589739D03*
%TD*%
D14*
%TO.C,R26*%
X127345761Y-57921261D03*
X125695761Y-57921261D03*
%TD*%
D24*
%TO.C,U1*%
X131395761Y-107051261D03*
X131395761Y-106551261D03*
X131395761Y-106051261D03*
X131395761Y-105551261D03*
X131395761Y-105051261D03*
X131395761Y-104551261D03*
X131395761Y-104051261D03*
X131395761Y-103551261D03*
X131395761Y-103051261D03*
X131395761Y-102551261D03*
X131395761Y-102051261D03*
X131395761Y-101551261D03*
D25*
X129983261Y-100138761D03*
X129483261Y-100138761D03*
X128983261Y-100138761D03*
X128483261Y-100138761D03*
X127983261Y-100138761D03*
X127483261Y-100138761D03*
X126983261Y-100138761D03*
X126483261Y-100138761D03*
X125983261Y-100138761D03*
X125483261Y-100138761D03*
X124983261Y-100138761D03*
X124483261Y-100138761D03*
D24*
X123070761Y-101551261D03*
X123070761Y-102051261D03*
X123070761Y-102551261D03*
X123070761Y-103051261D03*
X123070761Y-103551261D03*
X123070761Y-104051261D03*
X123070761Y-104551261D03*
X123070761Y-105051261D03*
X123070761Y-105551261D03*
X123070761Y-106051261D03*
X123070761Y-106551261D03*
X123070761Y-107051261D03*
D25*
X124483261Y-108463761D03*
X124983261Y-108463761D03*
X125483261Y-108463761D03*
X125983261Y-108463761D03*
X126483261Y-108463761D03*
X126983261Y-108463761D03*
X127483261Y-108463761D03*
X127983261Y-108463761D03*
X128483261Y-108463761D03*
X128983261Y-108463761D03*
X129483261Y-108463761D03*
X129983261Y-108463761D03*
%TD*%
D13*
%TO.C,R26*%
X169654239Y-98779739D03*
X171304239Y-98779739D03*
%TD*%
D16*
%TO.C,C14*%
X177154239Y-88729739D03*
X178704239Y-88729739D03*
%TD*%
D10*
%TO.C,C1*%
X136335761Y-66611261D03*
X134785761Y-66611261D03*
%TD*%
D12*
%TO.C,R5*%
X175699239Y-71364739D03*
X175699239Y-73014739D03*
%TD*%
D14*
%TO.C,R2*%
X178729239Y-104769739D03*
X177079239Y-104769739D03*
%TD*%
D12*
%TO.C,R14*%
X140560761Y-83726261D03*
X140560761Y-85376261D03*
%TD*%
D16*
%TO.C,C15*%
X177123478Y-49178978D03*
X178673478Y-49178978D03*
%TD*%
D11*
%TO.C,R5*%
X121300761Y-102876261D03*
X121300761Y-101226261D03*
%TD*%
D10*
%TO.C,C1*%
X136335761Y-101691261D03*
X134785761Y-101691261D03*
%TD*%
D24*
%TO.C,U1*%
X131395761Y-71971261D03*
X131395761Y-71471261D03*
X131395761Y-70971261D03*
X131395761Y-70471261D03*
X131395761Y-69971261D03*
X131395761Y-69471261D03*
X131395761Y-68971261D03*
X131395761Y-68471261D03*
X131395761Y-67971261D03*
X131395761Y-67471261D03*
X131395761Y-66971261D03*
X131395761Y-66471261D03*
D25*
X129983261Y-65058761D03*
X129483261Y-65058761D03*
X128983261Y-65058761D03*
X128483261Y-65058761D03*
X127983261Y-65058761D03*
X127483261Y-65058761D03*
X126983261Y-65058761D03*
X126483261Y-65058761D03*
X125983261Y-65058761D03*
X125483261Y-65058761D03*
X124983261Y-65058761D03*
X124483261Y-65058761D03*
D24*
X123070761Y-66471261D03*
X123070761Y-66971261D03*
X123070761Y-67471261D03*
X123070761Y-67971261D03*
X123070761Y-68471261D03*
X123070761Y-68971261D03*
X123070761Y-69471261D03*
X123070761Y-69971261D03*
X123070761Y-70471261D03*
X123070761Y-70971261D03*
X123070761Y-71471261D03*
X123070761Y-71971261D03*
D25*
X124483261Y-73383761D03*
X124983261Y-73383761D03*
X125483261Y-73383761D03*
X125983261Y-73383761D03*
X126483261Y-73383761D03*
X126983261Y-73383761D03*
X127483261Y-73383761D03*
X127983261Y-73383761D03*
X128483261Y-73383761D03*
X128983261Y-73383761D03*
X129483261Y-73383761D03*
X129983261Y-73383761D03*
%TD*%
D10*
%TO.C,C14*%
X119845761Y-85511261D03*
X118295761Y-85511261D03*
%TD*%
D14*
%TO.C,R1*%
X130326522Y-75852022D03*
X128676522Y-75852022D03*
%TD*%
D16*
%TO.C,C9*%
X156954239Y-82829739D03*
X158504239Y-82829739D03*
%TD*%
D15*
%TO.C,J2*%
X152569239Y-82049739D03*
X152569239Y-84589739D03*
X152569239Y-87129739D03*
X152569239Y-89669739D03*
X152569239Y-92209739D03*
%TD*%
D16*
%TO.C,C14*%
X177154239Y-106269739D03*
X178704239Y-106269739D03*
%TD*%
D13*
%TO.C,R2*%
X118270761Y-51931261D03*
X119920761Y-51931261D03*
%TD*%
D16*
%TO.C,C1*%
X160664239Y-90089739D03*
X162214239Y-90089739D03*
%TD*%
D13*
%TO.C,R1*%
X166673478Y-28228978D03*
X168323478Y-28228978D03*
%TD*%
D10*
%TO.C,C1*%
X136335761Y-84151261D03*
X134785761Y-84151261D03*
%TD*%
D15*
%TO.C,J2*%
X152569239Y-46969739D03*
X152569239Y-49509739D03*
X152569239Y-52049739D03*
X152569239Y-54589739D03*
X152569239Y-57129739D03*
%TD*%
D13*
%TO.C,R26*%
X169654239Y-81239739D03*
X171304239Y-81239739D03*
%TD*%
D24*
%TO.C,U1*%
X131395761Y-54431261D03*
X131395761Y-53931261D03*
X131395761Y-53431261D03*
X131395761Y-52931261D03*
X131395761Y-52431261D03*
X131395761Y-51931261D03*
X131395761Y-51431261D03*
X131395761Y-50931261D03*
X131395761Y-50431261D03*
X131395761Y-49931261D03*
X131395761Y-49431261D03*
X131395761Y-48931261D03*
D25*
X129983261Y-47518761D03*
X129483261Y-47518761D03*
X128983261Y-47518761D03*
X128483261Y-47518761D03*
X127983261Y-47518761D03*
X127483261Y-47518761D03*
X126983261Y-47518761D03*
X126483261Y-47518761D03*
X125983261Y-47518761D03*
X125483261Y-47518761D03*
X124983261Y-47518761D03*
X124483261Y-47518761D03*
D24*
X123070761Y-48931261D03*
X123070761Y-49431261D03*
X123070761Y-49931261D03*
X123070761Y-50431261D03*
X123070761Y-50931261D03*
X123070761Y-51431261D03*
X123070761Y-51931261D03*
X123070761Y-52431261D03*
X123070761Y-52931261D03*
X123070761Y-53431261D03*
X123070761Y-53931261D03*
X123070761Y-54431261D03*
D25*
X124483261Y-55843761D03*
X124983261Y-55843761D03*
X125483261Y-55843761D03*
X125983261Y-55843761D03*
X126483261Y-55843761D03*
X126983261Y-55843761D03*
X127483261Y-55843761D03*
X127983261Y-55843761D03*
X128483261Y-55843761D03*
X128983261Y-55843761D03*
X129483261Y-55843761D03*
X129983261Y-55843761D03*
%TD*%
D11*
%TO.C,R14*%
X156439239Y-55434739D03*
X156439239Y-53784739D03*
%TD*%
D14*
%TO.C,R1*%
X130326522Y-110932022D03*
X128676522Y-110932022D03*
%TD*%
D16*
%TO.C,C1*%
X160664239Y-55009739D03*
X162214239Y-55009739D03*
%TD*%
D14*
%TO.C,R4*%
X178713478Y-100328978D03*
X177063478Y-100328978D03*
%TD*%
D10*
%TO.C,C1*%
X136335761Y-49071261D03*
X134785761Y-49071261D03*
%TD*%
D14*
%TO.C,R26*%
X127345761Y-110541261D03*
X125695761Y-110541261D03*
%TD*%
%TO.C,R9*%
X141625761Y-47011261D03*
X139975761Y-47011261D03*
%TD*%
D13*
%TO.C,R2*%
X118270761Y-104551261D03*
X119920761Y-104551261D03*
%TD*%
D20*
%TO.C,Y1*%
X138150761Y-103861261D03*
X135250761Y-103861261D03*
X135250761Y-106161261D03*
X138150761Y-106161261D03*
%TD*%
D16*
%TO.C,C14*%
X177154239Y-36109739D03*
X178704239Y-36109739D03*
%TD*%
D10*
%TO.C,C9*%
X140045761Y-73871261D03*
X138495761Y-73871261D03*
%TD*%
M02*
