M48
; DRILL file {KiCad 9.0.3} date 2025-07-30T17:21:23+0200
; FORMAT={-:-/ absolute / metric / decimal}
; #@! TF.CreationDate,2025-07-30T17:21:23+02:00
; #@! TF.GenerationSoftware,Kicad,Pcbnew,9.0.3
; #@! TF.FileFunction,Plated,1,2,PTH
FMAT,2
METRIC
; #@! TA.AperFunction,Plated,PTH,ViaDrill
T1C0.300
; #@! TA.AperFunction,Plated,PTH,ViaDrill
T2C0.400
%
G90
G05
T1
X117.201Y-39.011
X117.201Y-56.551
X117.201Y-74.091
X117.201Y-91.631
X117.201Y-109.171
X121.871Y-28.291
X121.871Y-45.831
X121.871Y-63.371
X121.871Y-80.911
X121.871Y-98.451
X121.996Y-38.565
X121.996Y-56.105
X121.996Y-73.645
X121.996Y-91.185
X121.996Y-108.725
X122.867Y-30.077
X122.867Y-47.617
X122.867Y-65.157
X122.867Y-82.697
X122.867Y-100.237
X124.723Y-41.041
X124.723Y-58.581
X124.723Y-76.121
X124.723Y-93.661
X124.723Y-111.201
X124.821Y-33.241
X124.821Y-50.781
X124.821Y-68.321
X124.821Y-85.861
X124.821Y-103.401
X125.071Y-35.591
X125.071Y-53.131
X125.071Y-70.671
X125.071Y-88.211
X125.071Y-105.751
X125.871Y-36.391
X125.871Y-53.931
X125.871Y-71.471
X125.871Y-89.011
X125.871Y-106.551
X126.836Y-36.92
X126.836Y-54.46
X126.836Y-72.0
X126.836Y-89.54
X126.836Y-107.08
X126.876Y-31.722
X126.876Y-49.262
X126.876Y-66.802
X126.876Y-84.342
X126.876Y-101.882
X128.171Y-34.189
X128.171Y-51.729
X128.171Y-69.269
X128.171Y-86.809
X128.171Y-104.349
X128.51Y-35.568
X128.51Y-53.108
X128.51Y-70.648
X128.51Y-88.188
X128.51Y-105.728
X128.536Y-36.726
X128.536Y-54.266
X128.536Y-71.806
X128.536Y-89.346
X128.536Y-106.886
X128.661Y-33.098
X128.661Y-50.638
X128.661Y-68.178
X128.661Y-85.718
X128.661Y-103.258
X130.144Y-32.389
X130.144Y-49.929
X130.144Y-67.469
X130.144Y-85.009
X130.144Y-102.549
X133.452Y-37.282
X133.452Y-54.822
X133.452Y-72.362
X133.452Y-89.902
X133.452Y-107.442
X140.831Y-39.571
X140.831Y-57.111
X140.831Y-74.651
X140.831Y-92.191
X140.831Y-109.731
X142.511Y-37.468
X142.511Y-55.008
X142.511Y-72.548
X142.511Y-90.088
X142.511Y-107.628
X154.489Y-31.533
X154.489Y-49.073
X154.489Y-66.613
X154.489Y-84.153
X154.489Y-101.693
X156.169Y-29.43
X156.169Y-46.97
X156.169Y-64.51
X156.169Y-82.05
X156.169Y-99.59
X163.548Y-31.719
X163.548Y-49.259
X163.548Y-66.799
X163.548Y-84.339
X163.548Y-101.879
X166.856Y-36.612
X166.856Y-54.152
X166.856Y-71.692
X166.856Y-89.232
X166.856Y-106.772
X168.339Y-35.903
X168.339Y-53.443
X168.339Y-70.983
X168.339Y-88.523
X168.339Y-106.063
X168.464Y-32.275
X168.464Y-49.815
X168.464Y-67.355
X168.464Y-84.895
X168.464Y-102.435
X168.49Y-33.433
X168.49Y-50.973
X168.49Y-68.513
X168.49Y-86.053
X168.49Y-103.593
X168.829Y-34.812
X168.829Y-52.352
X168.829Y-69.892
X168.829Y-87.432
X168.829Y-104.972
X170.124Y-37.279
X170.124Y-54.819
X170.124Y-72.359
X170.124Y-89.899
X170.124Y-107.439
X170.164Y-32.081
X170.164Y-49.621
X170.164Y-67.161
X170.164Y-84.701
X170.164Y-102.241
X171.129Y-32.61
X171.129Y-50.15
X171.129Y-67.69
X171.129Y-85.23
X171.129Y-102.77
X171.929Y-33.41
X171.929Y-50.95
X171.929Y-68.49
X171.929Y-86.03
X171.929Y-103.57
X172.179Y-35.76
X172.179Y-53.3
X172.179Y-70.84
X172.179Y-88.38
X172.179Y-105.92
X172.277Y-27.96
X172.277Y-45.5
X172.277Y-63.04
X172.277Y-80.58
X172.277Y-98.12
X174.133Y-38.924
X174.133Y-56.464
X174.133Y-74.004
X174.133Y-91.544
X174.133Y-109.084
X175.004Y-30.436
X175.004Y-47.976
X175.004Y-65.516
X175.004Y-83.056
X175.004Y-100.596
X175.129Y-40.71
X175.129Y-58.25
X175.129Y-75.79
X175.129Y-93.33
X175.129Y-110.87
X179.799Y-29.99
X179.799Y-47.53
X179.799Y-65.07
X179.799Y-82.61
X179.799Y-100.15
T2
X116.161Y-34.341
X116.161Y-35.941
X116.161Y-51.881
X116.161Y-53.481
X116.161Y-69.421
X116.161Y-71.021
X116.161Y-86.961
X116.161Y-88.561
X116.161Y-104.501
X116.161Y-106.101
X117.242Y-31.942
X117.242Y-49.482
X117.242Y-67.022
X117.242Y-84.562
X117.242Y-102.102
X127.34Y-28.594
X127.34Y-46.134
X127.34Y-63.674
X127.34Y-81.214
X127.34Y-98.754
X128.232Y-27.95
X128.232Y-45.49
X128.232Y-63.03
X128.232Y-80.57
X128.232Y-98.111
X131.018Y-39.072
X131.018Y-56.612
X131.018Y-74.152
X131.018Y-91.692
X131.018Y-109.232
X132.783Y-36.408
X132.783Y-53.948
X132.783Y-71.488
X132.783Y-89.028
X132.783Y-106.568
X133.027Y-33.5
X133.027Y-51.04
X133.027Y-68.58
X133.027Y-86.12
X133.027Y-103.66
X133.395Y-30.066
X133.395Y-47.606
X133.395Y-65.146
X133.395Y-82.686
X133.395Y-100.226
X134.852Y-40.372
X134.852Y-57.912
X134.852Y-75.452
X134.852Y-92.992
X134.852Y-110.532
X136.056Y-29.431
X136.056Y-46.971
X136.056Y-64.511
X136.056Y-82.051
X136.056Y-99.591
X138.361Y-28.54
X138.361Y-46.08
X138.361Y-63.62
X138.361Y-81.16
X138.361Y-98.7
X139.866Y-36.947
X139.866Y-54.487
X139.866Y-72.027
X139.866Y-89.567
X139.866Y-107.107
X142.761Y-34.371
X142.761Y-51.911
X142.761Y-69.451
X142.761Y-86.991
X142.761Y-104.531
X154.239Y-34.63
X154.239Y-52.17
X154.239Y-69.71
X154.239Y-87.25
X154.239Y-104.79
X157.134Y-32.054
X157.134Y-49.594
X157.134Y-67.134
X157.134Y-84.674
X157.134Y-102.214
X158.639Y-40.461
X158.639Y-58.001
X158.639Y-75.541
X158.639Y-93.081
X158.639Y-110.621
X160.944Y-39.57
X160.944Y-57.11
X160.944Y-74.65
X160.944Y-92.19
X160.944Y-109.73
X162.148Y-28.629
X162.148Y-46.169
X162.148Y-63.709
X162.148Y-81.249
X162.148Y-98.789
X163.605Y-38.935
X163.605Y-56.475
X163.605Y-74.015
X163.605Y-91.555
X163.605Y-109.095
X163.973Y-35.501
X163.973Y-53.041
X163.973Y-70.581
X163.973Y-88.121
X163.973Y-105.661
X164.217Y-32.593
X164.217Y-50.133
X164.217Y-67.673
X164.217Y-85.213
X164.217Y-102.753
X165.982Y-29.929
X165.982Y-47.469
X165.982Y-65.009
X165.982Y-82.549
X165.982Y-100.089
X168.768Y-41.05
X168.768Y-58.59
X168.768Y-76.13
X168.768Y-93.67
X168.768Y-111.21
X169.66Y-40.407
X169.66Y-57.947
X169.66Y-75.487
X169.66Y-93.027
X169.66Y-110.567
X179.758Y-37.059
X179.758Y-54.599
X179.758Y-72.139
X179.758Y-89.679
X179.758Y-107.219
X180.839Y-33.06
X180.839Y-34.66
X180.839Y-50.6
X180.839Y-52.2
X180.839Y-68.14
X180.839Y-69.74
X180.839Y-85.68
X180.839Y-87.28
X180.839Y-103.22
X180.839Y-104.82
M30
